<svg width="13" height="10" viewBox="0 0 13 10" fill="none" xmlns="http://www.w3.org/2000/svg">
<path d="M12.7537 3.30208C12.8527 3.22135 13 3.29688 13 3.42448V8.75C13 9.4401 12.4541 10 11.7812 10H1.21875C0.545898 10 0 9.4401 0 8.75V3.42708C0 3.29688 0.144727 3.22396 0.246289 3.30469C0.815039 3.75781 1.56914 4.33333 4.15898 6.26302C4.69473 6.66406 5.59863 7.50781 6.5 7.5026C7.40645 7.51042 8.32812 6.64844 8.84355 6.26302C11.4334 4.33333 12.185 3.75521 12.7537 3.30208ZM6.5 6.66667C7.08906 6.67708 7.93711 5.90625 8.36367 5.58854C11.733 3.08073 11.9895 2.86198 12.7664 2.23698C12.9137 2.11979 13 1.9375 13 1.74479V1.25C13 0.559896 12.4541 0 11.7812 0H1.21875C0.545898 0 0 0.559896 0 1.25V1.74479C0 1.9375 0.0863281 2.11719 0.233594 2.23698C1.01055 2.85937 1.26699 3.08073 4.63633 5.58854C5.06289 5.90625 5.91094 6.67708 6.5 6.66667Z" fill="#ADB5BD"/>
</svg>
