<svg width="11" height="14" viewBox="0 0 11 14" fill="none" xmlns="http://www.w3.org/2000/svg">
<path d="M5.49736 0.415267C5.51851 0.543783 5.92308 2.99925 5.92308 3.93714C5.92308 5.36722 5.18798 6.38714 4.1012 6.7973L4.44231 13.3078C4.46082 13.6825 4.1726 13.9996 3.80769 13.9996H2.11538C1.75313 13.9996 1.46226 13.6852 1.48077 13.3078L1.82188 6.7973C0.732452 6.38714 0 5.36449 0 3.93714C0 2.99652 0.404567 0.543783 0.425721 0.415267C0.510337 -0.139811 1.62356 -0.148014 1.69231 0.445345V4.30628C1.72668 4.39925 2.09159 4.39378 2.11538 4.30628C2.1524 3.61449 2.32428 0.500033 2.32692 0.428939C2.41418 -0.139811 3.50889 -0.139811 3.59351 0.428939C3.5988 0.502767 3.76803 3.61449 3.80505 4.30628C3.82885 4.39378 4.19639 4.39925 4.22813 4.30628V0.445345C4.29688 -0.14528 5.41274 -0.139811 5.49736 0.415267ZM8.64928 8.22738L8.25264 13.2887C8.22091 13.6715 8.51442 13.9996 8.88462 13.9996H10.3654C10.7171 13.9996 11 13.7071 11 13.3434V0.655892C11 0.294955 10.7171 -0.000357647 10.3654 -0.000357647C8.18389 -0.000357647 4.51106 4.8805 8.64928 8.22738Z" fill="#ADB5BD"/>
</svg>
