<svg width="15" height="15" viewBox="0 0 15 15" fill="none" xmlns="http://www.w3.org/2000/svg">
<path d="M12.1969 9.51079L11.8367 9.1506C11.7914 9.10518 11.7659 9.04362 11.7659 8.97944V8.58871C11.7659 8.52187 11.7118 8.46774 11.645 8.46774H11.4617C11.4079 8.46774 11.3604 8.50343 11.3456 8.55484L11.2185 8.99244C11.2112 9.01758 11.196 9.03966 11.175 9.05537C11.1541 9.07107 11.1286 9.07956 11.1024 9.07954H10.9875C10.9636 9.07957 10.9403 9.07251 10.9204 9.05927C10.9006 9.04603 10.8851 9.02719 10.8759 9.00514L10.7141 8.61653C10.6958 8.57238 10.6647 8.53466 10.625 8.50813C10.5852 8.4816 10.5384 8.46744 10.4906 8.46744H10.125C10.0748 8.46744 10.0255 8.48316 9.98468 8.5122L9.26764 9.02298C9.21523 9.06045 9.15846 9.09142 9.09859 9.11522L7.90887 9.59123C7.86395 9.60917 7.82544 9.64017 7.79833 9.68023C7.77121 9.72029 7.75673 9.76756 7.75675 9.81593V10.1247C7.75675 10.1888 7.78216 10.2505 7.82752 10.2959L8.1877 10.656C8.27843 10.7468 8.40151 10.7979 8.52974 10.7979H8.84244C8.88206 10.7979 8.92137 10.793 8.95978 10.7834L9.60302 10.6225C9.87883 10.5535 10.1707 10.6343 10.3718 10.8354L10.7652 11.2288C10.8559 11.3196 10.979 11.3707 11.1073 11.3707H11.5657C11.694 11.3707 11.817 11.3196 11.9078 11.2288L12.1972 10.9394C12.2879 10.8487 12.339 10.7256 12.339 10.5974V9.85282C12.3387 9.7246 12.2876 9.60151 12.1969 9.51079ZM7.5 0C3.35806 0 0 3.35776 0 7.5C0 11.6422 3.35806 15 7.5 15C11.6419 15 15 11.6422 15 7.5C15 3.35776 11.6419 0 7.5 0ZM7.5 13.5484C4.49486 13.5484 2.00202 11.3434 1.53659 8.46774H3.42883C3.55706 8.46774 3.68014 8.41663 3.77087 8.32591L4.35968 7.7374C4.47641 7.62067 4.67329 7.65272 4.74708 7.8003L5.43115 9.16815C5.5131 9.33206 5.68064 9.43579 5.86391 9.43579H6.04839C6.31573 9.43579 6.53226 9.21925 6.53226 8.95192V8.66855C6.53226 8.54032 6.48115 8.41724 6.39042 8.32651L6.21925 8.15534C6.1249 8.06099 6.1249 7.90766 6.21925 7.81331L6.39042 7.64214C6.48115 7.55141 6.60423 7.5003 6.73246 7.5003H6.74183C6.91179 7.5003 7.06935 7.41109 7.15675 7.26532L7.68206 6.38982C7.73649 6.29909 7.86956 6.30423 7.91673 6.39889C7.93681 6.43905 7.96768 6.47282 8.00587 6.49643C8.04406 6.52004 8.08807 6.53255 8.13296 6.53256H8.22581C8.35948 6.53256 8.46774 6.42429 8.46774 6.29062V3.92843C8.46774 3.74516 8.36431 3.57762 8.2004 3.49567L7.87288 3.33206C7.70685 3.24889 7.69234 3.01754 7.84687 2.91442L9.36381 1.74919C11.7892 2.53669 13.5484 4.81542 13.5484 7.5C13.5484 10.8351 10.8351 13.5484 7.5 13.5484Z" fill="#ADB5BD"/>
</svg>
