<svg width="146" height="74" viewBox="0 0 146 74" fill="none" xmlns="http://www.w3.org/2000/svg">
<path d="M0.792847 74.0007H2.18884V43.2889C4.38255 47.6763 8.90291 50.6677 14.088 50.6677C21.4004 50.6677 27.3832 44.6849 27.3832 37.3725C27.3832 30.0602 21.4004 24.0773 14.088 24.0773C8.90291 24.0773 4.38255 27.0687 2.18884 31.4562V24.0773H0.792847V74.0007ZM14.088 49.3382C7.50691 49.3382 2.18884 44.0201 2.18884 37.439C2.18884 30.8579 7.50691 25.5398 14.088 25.5398C20.6691 25.5398 25.9872 30.8579 25.9872 37.439C25.9872 44.0201 20.6691 49.3382 14.088 49.3382Z" fill="#32394C"/>
<path d="M47.3286 50.6677C54.6409 50.6677 60.6237 44.6849 60.6237 37.3725C60.6237 30.0602 54.6409 24.0773 47.3286 24.0773C40.0162 24.0773 34.0334 30.0602 34.0334 37.3725C34.0334 44.6849 40.0162 50.6677 47.3286 50.6677ZM47.3286 49.2052C40.7475 49.2052 35.4294 43.8871 35.4294 37.306C35.4294 30.7249 40.7475 25.4068 47.3286 25.4068C53.9097 25.4068 59.2278 30.7249 59.2278 37.306C59.2278 43.8871 53.9097 49.2052 47.3286 49.2052Z" fill="#32394C"/>
<path d="M69.9304 50.6677H71.3264V37.2396C71.3264 30.1931 77.2427 25.4733 83.3585 25.4733V24.0773C78.2399 24.0773 73.5865 26.9358 71.3264 31.4562V24.7421H69.9304V50.6677Z" fill="#32394C"/>
<path d="M98.1338 26.1381V24.7421H92.8822V14.1724H91.4862V24.7421H87.3647V26.1381H91.4862V41.0952C91.4862 45.3496 93.414 48.341 95.4748 50.6677L96.4719 49.6041C94.7435 47.7427 92.8822 45.1502 92.8822 41.2281V26.1381H98.1338Z" fill="#32394C"/>
<path d="M131.287 24.7421V31.4562C129.093 27.0687 124.573 24.0773 119.387 24.0773C112.075 24.0773 106.092 30.0602 106.092 37.3725C106.092 44.6849 112.075 50.6677 119.387 50.6677C124.573 50.6677 129.093 47.6763 131.287 43.2889V50.6677H132.683V24.7421H131.287ZM119.387 49.2052C112.806 49.2052 107.488 43.8871 107.488 37.306C107.488 30.7249 112.806 25.4068 119.387 25.4068C125.969 25.4068 131.287 30.7249 131.287 37.306C131.287 43.8871 125.969 49.2052 119.387 49.2052Z" fill="#32394C"/>
<path d="M144.002 50.6677H145.398V0.744282H144.002V50.6677Z" fill="#32394C"/>
</svg>
