<svg width="96" height="51" viewBox="0 0 96 51" fill="none" xmlns="http://www.w3.org/2000/svg">
<path d="M8.89172 50.3941C13.2712 50.3941 17.6507 47.2802 17.6507 42.7088C17.6507 38.4686 13.3376 35.421 9.15714 35.421C5.90569 35.421 3.84865 33.566 3.84865 31.3796C3.84865 28.9945 6.23747 27.3382 8.89172 27.3382C11.3469 27.3382 13.8021 28.9283 13.8021 31.3796H17.6507C17.6507 26.2119 12.5413 23.8931 9.15714 23.8931C4.04772 23.8931 0 27.007 0 31.5784C0 35.421 3.98137 38.8662 8.89172 38.8662C11.1478 38.8662 13.8021 40.39 13.8021 42.7088C13.8021 45.1602 11.4796 46.8165 8.75901 46.8165C5.90569 46.8165 3.84865 44.8951 3.84865 42.8413H0C0 46.6177 3.58323 50.3941 8.89172 50.3941Z" fill="#32394C"/>
<path d="M36.3403 50.3941C43.6395 50.3941 49.5452 44.4314 49.5452 37.1436C49.5452 29.8558 43.6395 23.8931 36.3403 23.8931C28.9748 23.8931 23.0691 29.8558 23.0691 37.1436C23.0691 44.4314 28.9748 50.3941 36.3403 50.3941ZM36.473 46.6177C31.1646 46.6177 26.9178 42.3775 26.9178 37.2099C26.9178 31.9759 31.1646 27.7357 36.473 27.7357C41.5825 27.7357 45.8293 31.9759 45.8293 37.2099C45.8293 42.3775 41.5825 46.6177 36.473 46.6177Z" fill="#32394C"/>
<path d="M57.1393 50.3941H61.0544V0.704712H57.1393V50.3941Z" fill="#32394C"/>
<path d="M81.8954 50.3941C89.1945 50.3941 95.1002 44.4314 95.1002 37.1436C95.1002 29.8558 89.1945 23.8931 81.8954 23.8931C74.5298 23.8931 68.6241 29.8558 68.6241 37.1436C68.6241 44.4314 74.5298 50.3941 81.8954 50.3941ZM82.0281 46.6177C76.7196 46.6177 72.4728 42.3775 72.4728 37.2099C72.4728 31.9759 76.7196 27.7357 82.0281 27.7357C87.1375 27.7357 91.3843 31.9759 91.3843 37.2099C91.3843 42.3775 87.1375 46.6177 82.0281 46.6177Z" fill="#32394C"/>
</svg>
